<svg xmlns="http://www.w3.org/2000/svg" width="24" height="24" style=""><rect id="backgroundrect" width="100%" height="100%" x="0" y="0" fill="none" stroke="none" class="" style=""/><g class="currentLayer" style=""><title>Layer 1</title><path d="M0,0 h24 v24 H0 z" fill="none" id="svg_1" class=""/><path d="M3,5 h2 V3 c-1.1,0 -2,0.9 -2,2 zm0,8 h2 v-2 H3 v2 zm4,8 h2 v-2 H7 v2 zM3,9 h2 V7 H3 v2 zm10,-6 h-2 v2 h2 V3 zm6,0 v2 h2 c0,-1.1 -0.9,-2 -2,-2 zM5,21 v-2 H3 c0,1.1 0.9,2 2,2 zm-2,-4 h2 v-2 H3 v2 zM9,3 H7 v2 h2 V3 zm2,18 h2 v-2 h-2 v2 zm8,-8 h2 v-2 h-2 v2 zm0,8 c1.1,0 2,-0.9 2,-2 h-2 v2 zm0,-12 h2 V7 h-2 v2 zm0,8 h2 v-2 h-2 v2 zm-4,4 h2 v-2 h-2 v2 zm0,-16 h2 V3 h-2 v2 zM7,17 h10 V7 H7 v10 zm2,-8 h6 v6 H9 V9 z" id="svg_2" class="" fill="#00ff00" fill-opacity="0.51"/></g></svg>